<mxfile host="app.diagrams.net" agent="Mozilla/5.0 (Macintosh; Intel Mac OS X 10_15_7) AppleWebKit/537.36 (KHTML, like Gecko) Chrome/131.0.0.0 Safari/537.36" version="26.0.5">
  <diagram name="Page-1" id="3YOr41oclDgJEnjA_EyK">
    <mxGraphModel dx="990" dy="1145" grid="1" gridSize="10" guides="1" tooltips="1" connect="1" arrows="1" fold="1" page="1" pageScale="1" pageWidth="850" pageHeight="1100" math="0" shadow="0">
      <root>
        <mxCell id="0" />
        <mxCell id="1" parent="0" />
        <mxCell id="oxw924Aw_hE29r7gWZjA-1" value="ExpensiveResource" style="swimlane;fontStyle=0;childLayout=stackLayout;horizontal=1;startSize=26;fillColor=none;horizontalStack=0;resizeParent=1;resizeParentMax=0;resizeLast=0;collapsible=1;marginBottom=0;whiteSpace=wrap;html=1;" vertex="1" parent="1">
          <mxGeometry x="480" y="280" width="200" height="80" as="geometry" />
        </mxCell>
        <mxCell id="oxw924Aw_hE29r7gWZjA-4" value="PerformOperation()" style="text;strokeColor=none;fillColor=none;align=left;verticalAlign=top;spacingLeft=4;spacingRight=4;overflow=hidden;rotatable=0;points=[[0,0.5],[1,0.5]];portConstraint=eastwest;whiteSpace=wrap;html=1;" vertex="1" parent="oxw924Aw_hE29r7gWZjA-1">
          <mxGeometry y="26" width="200" height="54" as="geometry" />
        </mxCell>
        <mxCell id="oxw924Aw_hE29r7gWZjA-5" value="Client" style="html=1;whiteSpace=wrap;" vertex="1" parent="1">
          <mxGeometry x="200" y="282" width="90" height="50" as="geometry" />
        </mxCell>
        <mxCell id="oxw924Aw_hE29r7gWZjA-6" style="edgeStyle=orthogonalEdgeStyle;rounded=0;orthogonalLoop=1;jettySize=auto;html=1;entryX=-0.01;entryY=0.115;entryDx=0;entryDy=0;entryPerimeter=0;" edge="1" parent="1" source="oxw924Aw_hE29r7gWZjA-5" target="oxw924Aw_hE29r7gWZjA-4">
          <mxGeometry relative="1" as="geometry" />
        </mxCell>
        <mxCell id="oxw924Aw_hE29r7gWZjA-11" value="IResource" style="swimlane;fontStyle=0;childLayout=stackLayout;horizontal=1;startSize=26;fillColor=none;horizontalStack=0;resizeParent=1;resizeParentMax=0;resizeLast=0;collapsible=1;marginBottom=0;whiteSpace=wrap;html=1;" vertex="1" parent="1">
          <mxGeometry x="440" y="530" width="160" height="52" as="geometry" />
        </mxCell>
        <mxCell id="oxw924Aw_hE29r7gWZjA-14" value="PerformOperation()" style="text;strokeColor=none;fillColor=none;align=left;verticalAlign=top;spacingLeft=4;spacingRight=4;overflow=hidden;rotatable=0;points=[[0,0.5],[1,0.5]];portConstraint=eastwest;whiteSpace=wrap;html=1;" vertex="1" parent="oxw924Aw_hE29r7gWZjA-11">
          <mxGeometry y="26" width="160" height="26" as="geometry" />
        </mxCell>
        <mxCell id="oxw924Aw_hE29r7gWZjA-15" value="ExpensiveResource" style="swimlane;fontStyle=0;childLayout=stackLayout;horizontal=1;startSize=26;fillColor=none;horizontalStack=0;resizeParent=1;resizeParentMax=0;resizeLast=0;collapsible=1;marginBottom=0;whiteSpace=wrap;html=1;" vertex="1" parent="1">
          <mxGeometry x="265" y="680" width="160" height="120" as="geometry" />
        </mxCell>
        <mxCell id="oxw924Aw_hE29r7gWZjA-16" value="ExpensiveResource(){create}" style="text;strokeColor=none;fillColor=none;align=left;verticalAlign=top;spacingLeft=4;spacingRight=4;overflow=hidden;rotatable=0;points=[[0,0.5],[1,0.5]];portConstraint=eastwest;whiteSpace=wrap;html=1;" vertex="1" parent="oxw924Aw_hE29r7gWZjA-15">
          <mxGeometry y="26" width="160" height="54" as="geometry" />
        </mxCell>
        <mxCell id="oxw924Aw_hE29r7gWZjA-18" value="PerformOperation()" style="text;strokeColor=none;fillColor=none;align=left;verticalAlign=top;spacingLeft=4;spacingRight=4;overflow=hidden;rotatable=0;points=[[0,0.5],[1,0.5]];portConstraint=eastwest;whiteSpace=wrap;html=1;" vertex="1" parent="oxw924Aw_hE29r7gWZjA-15">
          <mxGeometry y="80" width="160" height="40" as="geometry" />
        </mxCell>
        <mxCell id="oxw924Aw_hE29r7gWZjA-17" style="edgeStyle=orthogonalEdgeStyle;rounded=0;orthogonalLoop=1;jettySize=auto;html=1;entryX=0.393;entryY=1.038;entryDx=0;entryDy=0;entryPerimeter=0;" edge="1" parent="1" source="oxw924Aw_hE29r7gWZjA-15" target="oxw924Aw_hE29r7gWZjA-14">
          <mxGeometry relative="1" as="geometry" />
        </mxCell>
        <mxCell id="oxw924Aw_hE29r7gWZjA-22" value="Client" style="html=1;whiteSpace=wrap;" vertex="1" parent="1">
          <mxGeometry x="240.95999999999998" y="531" width="90" height="50" as="geometry" />
        </mxCell>
        <mxCell id="oxw924Aw_hE29r7gWZjA-23" style="edgeStyle=orthogonalEdgeStyle;rounded=0;orthogonalLoop=1;jettySize=auto;html=1;entryX=-0.006;entryY=0.15;entryDx=0;entryDy=0;entryPerimeter=0;" edge="1" parent="1" source="oxw924Aw_hE29r7gWZjA-22">
          <mxGeometry relative="1" as="geometry">
            <mxPoint x="439.99999999999994" y="555" as="targetPoint" />
          </mxGeometry>
        </mxCell>
        <mxCell id="oxw924Aw_hE29r7gWZjA-25" value="ExpensiveResourceProxy" style="swimlane;fontStyle=0;childLayout=stackLayout;horizontal=1;startSize=26;fillColor=none;horizontalStack=0;resizeParent=1;resizeParentMax=0;resizeLast=0;collapsible=1;marginBottom=0;whiteSpace=wrap;html=1;" vertex="1" parent="1">
          <mxGeometry x="650" y="680" width="160" height="66" as="geometry" />
        </mxCell>
        <mxCell id="oxw924Aw_hE29r7gWZjA-26" value="PerformOperation()" style="text;strokeColor=none;fillColor=none;align=left;verticalAlign=top;spacingLeft=4;spacingRight=4;overflow=hidden;rotatable=0;points=[[0,0.5],[1,0.5]];portConstraint=eastwest;whiteSpace=wrap;html=1;" vertex="1" parent="oxw924Aw_hE29r7gWZjA-25">
          <mxGeometry y="26" width="160" height="40" as="geometry" />
        </mxCell>
        <mxCell id="oxw924Aw_hE29r7gWZjA-27" style="edgeStyle=orthogonalEdgeStyle;rounded=0;orthogonalLoop=1;jettySize=auto;html=1;entryX=0.881;entryY=1.038;entryDx=0;entryDy=0;entryPerimeter=0;" edge="1" parent="1" source="oxw924Aw_hE29r7gWZjA-25" target="oxw924Aw_hE29r7gWZjA-14">
          <mxGeometry relative="1" as="geometry" />
        </mxCell>
        <mxCell id="oxw924Aw_hE29r7gWZjA-28" value="" style="endArrow=diamondThin;endFill=1;endSize=24;html=1;rounded=0;entryX=-0.012;entryY=0.125;entryDx=0;entryDy=0;entryPerimeter=0;" edge="1" parent="1" target="oxw924Aw_hE29r7gWZjA-26">
          <mxGeometry width="160" relative="1" as="geometry">
            <mxPoint x="425" y="712.5" as="sourcePoint" />
            <mxPoint x="585" y="712.5" as="targetPoint" />
          </mxGeometry>
        </mxCell>
      </root>
    </mxGraphModel>
  </diagram>
</mxfile>
